<?xml version="1.0" encoding="UTF-8" standalone="no"?>
<svg
   xmlns:dc="http://purl.org/dc/elements/1.1/"
   xmlns:cc="http://creativecommons.org/ns#"
   xmlns:rdf="http://www.w3.org/1999/02/22-rdf-syntax-ns#"
   xmlns:svg="http://www.w3.org/2000/svg"
   xmlns="http://www.w3.org/2000/svg"
   viewBox="0 0 682.66669 682.66669"
   height="682.66669"
   width="682.66669"
   xml:space="preserve"
   id="svg2"
   version="1.1"><metadata
     id="metadata8"><rdf:RDF><cc:Work
         rdf:about=""><dc:format>image/svg+xml</dc:format><dc:type
           rdf:resource="http://purl.org/dc/dcmitype/StillImage" /></cc:Work></rdf:RDF></metadata><defs
     id="defs6"><clipPath
       id="clipPath18"
       clipPathUnits="userSpaceOnUse"><path
         id="path16"
         d="M 0,512 H 512 V 0 H 0 Z" /></clipPath><clipPath
       id="clipPath62"
       clipPathUnits="userSpaceOnUse"><path
         id="path60"
         d="m 44.823,48.842 h 55.691 v 382.07 H 44.823 Z" /></clipPath></defs><g
     transform="matrix(1.3333333,0,0,-1.3333333,0,682.66667)"
     id="g10"><g
       id="g12"><g
         clip-path="url(#clipPath18)"
         id="g14"><g
           transform="translate(415.2634,45.7994)"
           id="g20"><path
             id="path22"
             style="fill:#999999;fill-opacity:1;fill-rule:nonzero;stroke:none"
             d="m 0,0 h -293.285 c -14.462,0 -26.185,11.723 -26.185,26.185 V 406.06 c 0,14.461 11.723,26.185 26.185,26.185 H 0 c 14.461,0 26.185,-11.724 26.185,-26.185 V 26.185 C 26.185,11.723 14.461,0 0,0" /></g><g
           transform="translate(415.2634,45.7994)"
           id="g24"><path
             id="path26"
             style="fill:none;stroke:#999999;stroke-width:19.84000015;stroke-linecap:butt;stroke-linejoin:miter;stroke-miterlimit:10;stroke-dasharray:none;stroke-opacity:1"
             d="m 0,0 h -293.285 c -14.462,0 -26.185,11.723 -26.185,26.185 V 406.06 c 0,14.461 11.723,26.185 26.185,26.185 H 0 c 14.461,0 26.185,-11.724 26.185,-26.185 V 26.185 C 26.185,11.723 14.461,0 0,0 Z" /></g><g
           transform="translate(394.0756,32.3801)"
           id="g28"><path
             id="path30"
             style="fill:#ffffff;fill-opacity:1;fill-rule:nonzero;stroke:none"
             d="m 0,0 h -293.285 c -14.462,0 -26.185,11.723 -26.185,26.185 V 406.06 c 0,14.461 11.723,26.185 26.185,26.185 H 0 c 14.461,0 26.185,-11.724 26.185,-26.185 V 26.185 C 26.185,11.723 14.461,0 0,0" /></g><g
           transform="translate(394.0756,32.3801)"
           id="g32"><path
             id="path34"
             style="fill:none;stroke:#b3b3b3;stroke-width:19.84000015;stroke-linecap:butt;stroke-linejoin:miter;stroke-miterlimit:10;stroke-dasharray:none;stroke-opacity:1"
             d="m 0,0 h -293.285 c -14.462,0 -26.185,11.723 -26.185,26.185 V 406.06 c 0,14.461 11.723,26.185 26.185,26.185 H 0 c 14.461,0 26.185,-11.724 26.185,-26.185 V 26.185 C 26.185,11.723 14.461,0 0,0 Z" /></g><g
           transform="translate(191.4289,475.003)"
           id="g36"><path
             id="path38"
             style="fill:#f87171;fill-opacity:1;fill-rule:evenodd;stroke:none"
             d="M 0,0 V -125.828 H -35.798 V 0 l 5.774,7.724 H 4.733 Z" /></g><g
           transform="translate(244.0757,159.5645)"
           id="g40"><path
             id="path42"
             style="fill:#45bbb0;fill-opacity:1;fill-rule:nonzero;stroke:none"
             d="m 0,0 c 24.955,-4.456 106.584,-26.466 123.616,-9.028 3.301,5.744 -3.348,15.564 -7.39,20.729 -6.608,8.245 -15.093,15.332 -23.986,21.27 C 73.939,45.123 52.903,53.507 31.153,58.28 l 2.389,0.081 C 29.896,57.573 26.289,55.081 23.415,51.63 14.514,40.656 12.083,24.384 16.533,10.941 20.705,-1.743 30.31,-8.854 42.036,-14.251 c 8.307,-4.14 13.201,-1.489 18.825,5.194 l 1.407,-1.064 c -2.293,-3.35 -5.037,-6.883 -8.953,-8.635 -6.887,-2.981 -14.181,0.87 -20.433,3.406 -5.04,2.245 -9.843,5.426 -13.827,9.488 -16.382,16.646 -17.113,45.059 -3.576,63.749 3.969,5.361 9.616,9.761 16.34,11.412 0,10e-4 1.356,-0.214 1.356,-0.214 29.361,-4.768 57.853,-16.132 81.687,-34.203 9.992,-7.82 19.719,-16.997 24.994,-29.002 5.655,-12.675 2.45,-26.634 -10.359,-33.558 -14.76,-7.698 -32.342,-5.848 -47.808,-3.435 -17.426,3.002 -34.374,8.412 -50.673,14.852 -10.805,4.311 -21.367,9.127 -31.613,14.6 z" /></g><g
           transform="translate(263.3779,226.7354)"
           id="g44"><path
             id="path46"
             style="fill:#45bbb0;fill-opacity:1;fill-rule:nonzero;stroke:none"
             d="m 0,0 c -4.456,-24.955 -26.466,-106.584 -9.028,-123.616 5.744,-3.301 15.564,3.348 20.729,7.39 8.245,6.608 15.332,15.093 21.27,23.986 12.152,18.301 20.536,39.337 25.309,61.087 l 0.081,-2.389 c -0.788,3.646 -3.28,7.253 -6.731,10.127 -10.974,8.901 -27.246,11.332 -40.689,6.882 -12.684,-4.172 -19.795,-13.777 -25.192,-25.503 -4.14,-8.307 -1.489,-13.201 5.194,-18.825 l -1.064,-1.407 c -3.35,2.293 -6.883,5.037 -8.635,8.953 -2.981,6.887 0.87,14.181 3.406,20.433 2.245,5.04 5.426,9.843 9.488,13.827 16.646,16.382 45.059,17.113 63.749,3.576 5.361,-3.969 9.761,-9.616 11.412,-16.34 10e-4,0 -0.214,-1.356 -0.214,-1.356 -4.768,-29.361 -16.132,-57.853 -34.203,-81.687 -7.82,-9.992 -16.997,-19.719 -29.002,-24.994 -12.675,-5.655 -26.634,-2.45 -33.558,10.359 -7.698,14.76 -5.848,32.342 -3.435,47.808 3.002,17.426 8.412,34.374 14.852,50.673 4.311,10.805 9.127,21.367 14.6,31.613 z" /></g><g
           transform="translate(330.5488,207.4336)"
           id="g48"><path
             id="path50"
             style="fill:#45bbb0;fill-opacity:1;fill-rule:nonzero;stroke:none"
             d="m 0,0 c -24.955,4.456 -106.584,26.466 -123.616,9.028 -3.301,-5.744 3.348,-15.564 7.39,-20.729 6.608,-8.245 15.093,-15.332 23.986,-21.27 18.301,-12.152 39.337,-20.536 61.087,-25.309 l -2.389,-0.081 c 3.646,0.788 7.253,3.28 10.127,6.731 8.901,10.974 11.332,27.246 6.882,40.689 -4.172,12.684 -13.777,19.795 -25.503,25.192 -8.307,4.14 -13.201,1.489 -18.825,-5.194 l -1.407,1.064 c 2.293,3.35 5.037,6.883 8.953,8.635 6.887,2.981 14.181,-0.87 20.433,-3.406 5.04,-2.245 9.843,-5.426 13.827,-9.488 16.382,-16.646 17.113,-45.059 3.576,-63.749 -3.969,-5.361 -9.616,-9.761 -16.34,-11.412 0,-10e-4 -1.356,0.214 -1.356,0.214 -29.361,4.768 -57.853,16.132 -81.687,34.203 -9.992,7.82 -19.719,16.997 -24.994,29.002 -5.655,12.675 -2.45,26.634 10.359,33.558 14.76,7.698 32.342,5.848 47.808,3.435 17.426,-3.002 34.374,-8.412 50.673,-14.852 10.805,-4.311 21.367,-9.127 31.613,-14.6 z" /></g><g
           transform="translate(311.2471,140.2622)"
           id="g52"><path
             id="path54"
             style="fill:#45bbb0;fill-opacity:1;fill-rule:nonzero;stroke:none"
             d="m 0,0 c 4.456,24.955 26.466,106.584 9.028,123.616 -5.744,3.301 -15.564,-3.348 -20.729,-7.39 -8.245,-6.608 -15.332,-15.093 -21.27,-23.986 C -45.123,73.939 -53.507,52.903 -58.28,31.153 l -0.081,2.389 c 0.788,-3.646 3.28,-7.253 6.731,-10.127 10.974,-8.901 27.246,-11.332 40.689,-6.882 12.684,4.172 19.795,13.777 25.192,25.503 4.14,8.307 1.489,13.201 -5.194,18.825 l 1.064,1.407 c 3.35,-2.293 6.883,-5.037 8.635,-8.953 C 21.737,46.428 17.886,39.134 15.35,32.882 13.105,27.842 9.924,23.039 5.862,19.055 -10.784,2.673 -39.197,1.942 -57.887,15.479 c -5.361,3.969 -9.761,9.616 -11.412,16.34 -10e-4,0 0.214,1.356 0.214,1.356 4.768,29.361 16.132,57.853 34.203,81.687 7.82,9.992 16.997,19.719 29.002,24.994 12.675,5.655 26.634,2.45 33.558,-10.359 7.698,-14.76 5.848,-32.342 3.435,-47.808 C 28.111,64.263 22.701,47.315 16.261,31.016 11.95,20.211 7.134,9.649 1.661,-0.597 Z" /></g></g></g><g
       id="g56"><g
         clip-path="url(#clipPath62)"
         id="g58"><path
           id="path64"
           style="fill:#45bbb0;fill-opacity:1;fill-rule:evenodd;stroke:none"
           d="m -11.595,463.875 h -69.194 v 32.984 h 69.194 z" /><path
           id="path66"
           style="fill:#45bbb0;fill-opacity:1;fill-rule:evenodd;stroke:none"
           d="M 110.165,463.875 H 40.971 v 32.984 h 69.194 z" /><path
           id="path68"
           style="fill:#45bbb0;fill-opacity:1;fill-rule:evenodd;stroke:none"
           d="M 231.924,463.875 H 162.73 v 32.984 h 69.194 z" /><path
           id="path70"
           style="fill:#45bbb0;fill-opacity:1;fill-rule:evenodd;stroke:none"
           d="m -11.595,397.928 h -69.194 v 32.984 h 69.194 z" /><path
           id="path72"
           style="fill:#45bbb0;fill-opacity:1;fill-rule:evenodd;stroke:none"
           d="M 110.165,397.928 H 40.971 v 32.984 h 69.194 z" /><path
           id="path74"
           style="fill:#45bbb0;fill-opacity:1;fill-rule:evenodd;stroke:none"
           d="M 231.924,397.928 H 162.73 v 32.984 h 69.194 z" /><path
           id="path76"
           style="fill:#45bbb0;fill-opacity:1;fill-rule:evenodd;stroke:none"
           d="m -11.595,331.98 h -69.194 v 32.984 h 69.194 z" /><path
           id="path78"
           style="fill:#45bbb0;fill-opacity:1;fill-rule:evenodd;stroke:none"
           d="M 110.165,331.98 H 40.971 v 32.984 h 69.194 z" /><path
           id="path80"
           style="fill:#45bbb0;fill-opacity:1;fill-rule:evenodd;stroke:none"
           d="M 231.924,331.98 H 162.73 v 32.984 h 69.194 z" /><path
           id="path82"
           style="fill:#45bbb0;fill-opacity:1;fill-rule:evenodd;stroke:none"
           d="m -11.595,266.034 h -69.194 v 32.984 h 69.194 z" /><path
           id="path84"
           style="fill:#45bbb0;fill-opacity:1;fill-rule:evenodd;stroke:none"
           d="M 110.165,266.034 H 40.971 v 32.984 h 69.194 z" /><path
           id="path86"
           style="fill:#45bbb0;fill-opacity:1;fill-rule:evenodd;stroke:none"
           d="M 231.924,266.034 H 162.73 v 32.984 h 69.194 z" /><path
           id="path88"
           style="fill:#45bbb0;fill-opacity:1;fill-rule:evenodd;stroke:none"
           d="m -11.595,200.087 h -69.194 v 32.984 h 69.194 z" /><path
           id="path90"
           style="fill:#45bbb0;fill-opacity:1;fill-rule:evenodd;stroke:none"
           d="M 110.165,200.087 H 40.971 v 32.984 h 69.194 z" /><path
           id="path92"
           style="fill:#45bbb0;fill-opacity:1;fill-rule:evenodd;stroke:none"
           d="M 231.924,200.087 H 162.73 v 32.984 h 69.194 z" /><path
           id="path94"
           style="fill:#45bbb0;fill-opacity:1;fill-rule:evenodd;stroke:none"
           d="m -11.595,134.14 h -69.194 v 32.984 h 69.194 z" /><path
           id="path96"
           style="fill:#45bbb0;fill-opacity:1;fill-rule:evenodd;stroke:none"
           d="M 110.165,134.14 H 40.971 v 32.984 h 69.194 z" /><path
           id="path98"
           style="fill:#45bbb0;fill-opacity:1;fill-rule:evenodd;stroke:none"
           d="M 231.924,134.14 H 162.73 v 32.984 h 69.194 z" /><path
           id="path100"
           style="fill:#45bbb0;fill-opacity:1;fill-rule:evenodd;stroke:none"
           d="m -11.595,68.193 h -69.194 v 32.984 h 69.194 z" /><path
           id="path102"
           style="fill:#45bbb0;fill-opacity:1;fill-rule:evenodd;stroke:none"
           d="M 110.165,68.193 H 40.971 v 32.984 h 69.194 z" /><path
           id="path104"
           style="fill:#45bbb0;fill-opacity:1;fill-rule:evenodd;stroke:none"
           d="M 231.924,68.193 H 162.73 v 32.984 h 69.194 z" /><path
           id="path106"
           style="fill:#45bbb0;fill-opacity:1;fill-rule:evenodd;stroke:none"
           d="M -11.595,2.246 H -80.789 V 35.23 h 69.194 z" /><path
           id="path108"
           style="fill:#45bbb0;fill-opacity:1;fill-rule:evenodd;stroke:none"
           d="M 110.165,2.246 H 40.971 V 35.23 h 69.194 z" /><path
           id="path110"
           style="fill:#45bbb0;fill-opacity:1;fill-rule:evenodd;stroke:none"
           d="M 231.924,2.246 H 162.73 V 35.23 h 69.194 z" /></g></g></g></svg>