<?xml version="1.0" encoding="UTF-8" standalone="no"?>
<svg
   xmlns:dc="http://purl.org/dc/elements/1.1/"
   xmlns:cc="http://creativecommons.org/ns#"
   xmlns:rdf="http://www.w3.org/1999/02/22-rdf-syntax-ns#"
   xmlns:svg="http://www.w3.org/2000/svg"
   xmlns="http://www.w3.org/2000/svg"
   viewBox="0 0 682.66669 682.66669"
   height="682.66669"
   width="682.66669"
   xml:space="preserve"
   id="svg2"
   version="1.1"><metadata
     id="metadata8"><rdf:RDF><cc:Work
         rdf:about=""><dc:format>image/svg+xml</dc:format><dc:type
           rdf:resource="http://purl.org/dc/dcmitype/StillImage" /></cc:Work></rdf:RDF></metadata><defs
     id="defs6"><clipPath
       id="clipPath18"
       clipPathUnits="userSpaceOnUse"><path
         id="path16"
         d="M 0,512 H 512 V 0 H 0 Z" /></clipPath></defs><g
     transform="matrix(1.3333333,0,0,-1.3333333,0,682.66667)"
     id="g10"><g
       id="g12"><g
         clip-path="url(#clipPath18)"
         id="g14"><g
           transform="translate(415.2634,45.7994)"
           id="g20"><path
             id="path22"
             style="fill:#999999;fill-opacity:1;fill-rule:nonzero;stroke:none"
             d="m 0,0 h -293.285 c -14.462,0 -26.185,11.723 -26.185,26.185 V 406.06 c 0,14.461 11.723,26.185 26.185,26.185 H 0 c 14.461,0 26.185,-11.724 26.185,-26.185 V 26.185 C 26.185,11.723 14.461,0 0,0" /></g><g
           transform="translate(415.2634,45.7994)"
           id="g24"><path
             id="path26"
             style="fill:none;stroke:#999999;stroke-width:19.84000015;stroke-linecap:butt;stroke-linejoin:miter;stroke-miterlimit:10;stroke-dasharray:none;stroke-opacity:1"
             d="m 0,0 h -293.285 c -14.462,0 -26.185,11.723 -26.185,26.185 V 406.06 c 0,14.461 11.723,26.185 26.185,26.185 H 0 c 14.461,0 26.185,-11.724 26.185,-26.185 V 26.185 C 26.185,11.723 14.461,0 0,0 Z" /></g><g
           transform="translate(394.0756,32.3801)"
           id="g28"><path
             id="path30"
             style="fill:#ffffff;fill-opacity:1;fill-rule:nonzero;stroke:none"
             d="m 0,0 h -293.285 c -14.462,0 -26.185,11.723 -26.185,26.185 V 406.06 c 0,14.461 11.723,26.185 26.185,26.185 H 0 c 14.461,0 26.185,-11.724 26.185,-26.185 V 26.185 C 26.185,11.723 14.461,0 0,0" /></g><g
           transform="translate(394.0756,32.3801)"
           id="g32"><path
             id="path34"
             style="fill:none;stroke:#b3b3b3;stroke-width:19.84000015;stroke-linecap:butt;stroke-linejoin:miter;stroke-miterlimit:10;stroke-dasharray:none;stroke-opacity:1"
             d="m 0,0 h -293.285 c -14.462,0 -26.185,11.723 -26.185,26.185 V 406.06 c 0,14.461 11.723,26.185 26.185,26.185 H 0 c 14.461,0 26.185,-11.724 26.185,-26.185 V 26.185 C 26.185,11.723 14.461,0 0,0 Z" /></g><path
           id="path36"
           style="fill:#e6e6e6;fill-opacity:1;fill-rule:nonzero;stroke:none"
           d="M 397.572,230.875 H 113.515 v 209.273 h 284.057 z" /><path
           id="path38"
           style="fill:none;stroke:#00beb0;stroke-width:12.59000015;stroke-linecap:butt;stroke-linejoin:miter;stroke-miterlimit:10;stroke-dasharray:none;stroke-opacity:1"
           d="M 382.202,227.641 H 109.988 v 197.635 h 272.214 z" /><g
           transform="translate(272.9517,118.9707)"
           id="g40"><path
             id="path42"
             style="fill:#00beb0;fill-opacity:1;fill-rule:nonzero;stroke:none"
             d="m 0,0 c 23.505,-4.613 47.426,-11.156 71.315,-11.094 5.579,0.302 13.32,0.531 16.883,4.648 1.044,1.696 0.677,3.812 -0.086,6.005 C 84.094,9.571 74.884,17.283 65.804,23.521 52.748,32.19 37.741,38.172 22.224,41.576 l 1.704,0.059 c -2.6,-0.562 -5.175,-2.341 -7.224,-4.803 -8.433,-10.503 -8.907,-27.61 0.153,-37.978 3.393,-4.045 8.387,-6.767 13.126,-9.031 5.847,-2.937 9.495,-1.026 13.434,3.716 l 1.005,-0.759 c -2.188,-3.261 -5.175,-6.731 -9.529,-6.92 -4.18,-0.145 -7.77,1.712 -11.424,3.213 -3.592,1.606 -7.002,3.885 -9.848,6.771 C 4.871,4.609 2.435,18.264 5.668,30 7.92,38.425 13.619,47.195 22.699,49.438 48.854,45.365 79.775,32.383 96.144,10.627 c 7.368,-9.952 8.467,-23.62 -3.768,-30.362 -6.584,-3.58 -14.25,-4.1 -21.169,-3.874 -17.267,0.884 -33.305,5.844 -49.075,12.028 -7.716,3.047 -15.246,6.501 -22.559,10.395 z" /></g><g
           transform="translate(286.7217,166.8906)"
           id="g44"><path
             id="path46"
             style="fill:#00beb0;fill-opacity:1;fill-rule:nonzero;stroke:none"
             d="m 0,0 c -4.613,-23.505 -11.156,-47.426 -11.094,-71.315 0.302,-5.579 0.531,-13.32 4.648,-16.883 1.696,-1.044 3.812,-0.677 6.005,0.086 10.012,4.018 17.724,13.228 23.962,22.308 8.669,13.056 14.651,28.063 18.055,43.58 l 0.059,-1.704 c -0.562,2.6 -2.341,5.175 -4.803,7.224 -10.503,8.433 -27.61,8.907 -37.978,-0.153 -4.045,-3.393 -6.767,-8.387 -9.031,-13.126 -2.937,-5.847 -1.026,-9.495 3.716,-13.434 l -0.759,-1.005 c -3.261,2.188 -6.731,5.175 -6.92,9.529 -0.145,4.18 1.712,7.77 3.213,11.424 1.606,3.592 3.885,7.002 6.771,9.848 8.765,8.75 22.42,11.186 34.156,7.953 8.425,-2.252 17.195,-7.951 19.438,-17.031 -4.073,-26.155 -17.055,-57.076 -38.811,-73.445 -9.952,-7.368 -23.62,-8.467 -30.362,3.768 -3.58,6.584 -4.1,14.25 -3.874,21.169 0.884,17.267 5.844,33.305 12.028,49.075 3.047,7.716 6.501,15.246 10.395,22.559 z" /></g><g
           transform="translate(334.6411,153.1211)"
           id="g48"><path
             id="path50"
             style="fill:#00beb0;fill-opacity:1;fill-rule:nonzero;stroke:none"
             d="m 0,0 c -23.505,4.613 -47.426,11.156 -71.315,11.094 -5.579,-0.302 -13.32,-0.531 -16.883,-4.648 -1.044,-1.696 -0.677,-3.812 0.086,-6.005 4.018,-10.012 13.228,-17.724 22.308,-23.962 13.056,-8.669 28.063,-14.651 43.58,-18.055 l -1.704,-0.059 c 2.6,0.562 5.175,2.341 7.224,4.803 8.433,10.503 8.907,27.61 -0.153,37.978 -3.393,4.045 -8.387,6.767 -13.126,9.031 -5.847,2.937 -9.495,1.026 -13.434,-3.716 l -1.005,0.759 c 2.188,3.261 5.175,6.731 9.529,6.92 4.18,0.145 7.77,-1.712 11.424,-3.213 3.592,-1.606 7.002,-3.885 9.848,-6.771 8.75,-8.765 11.186,-22.42 7.953,-34.156 -2.252,-8.425 -7.951,-17.195 -17.031,-19.438 -26.155,4.073 -57.076,17.055 -73.445,38.811 -7.368,9.952 -8.467,23.62 3.768,30.362 6.584,3.58 14.25,4.1 21.169,3.874 17.267,-0.884 33.305,-5.844 49.075,-12.028 C -14.416,8.534 -6.886,5.08 0.427,1.186 Z" /></g><g
           transform="translate(320.8721,105.2012)"
           id="g52"><path
             id="path54"
             style="fill:#00beb0;fill-opacity:1;fill-rule:nonzero;stroke:none"
             d="M 0,0 C 4.613,23.505 11.156,47.426 11.094,71.315 10.792,76.894 10.563,84.635 6.446,88.198 4.75,89.242 2.634,88.875 0.441,88.112 -9.571,84.094 -17.283,74.884 -23.521,65.804 -32.19,52.748 -38.172,37.741 -41.576,22.224 l -0.059,1.704 c 0.562,-2.6 2.341,-5.175 4.803,-7.224 10.503,-8.433 27.61,-8.907 37.978,0.153 4.045,3.393 6.767,8.387 9.031,13.126 2.937,5.847 1.026,9.495 -3.716,13.434 l 0.759,1.005 c 3.261,-2.188 6.731,-5.175 6.92,-9.529 0.145,-4.18 -1.712,-7.77 -3.213,-11.424 C 9.321,19.877 7.042,16.467 4.156,13.621 -4.609,4.871 -18.264,2.435 -30,5.668 c -8.425,2.252 -17.195,7.951 -19.438,17.031 4.073,26.155 17.055,57.076 38.811,73.445 9.952,7.368 23.62,8.467 30.362,-3.768 3.58,-6.584 4.1,-14.25 3.874,-21.169 C 22.725,53.94 17.765,37.902 11.581,22.132 8.534,14.416 5.08,6.886 1.186,-0.427 Z" /></g><path
           id="path56"
           style="fill:#999999;fill-opacity:1;fill-rule:nonzero;stroke:#666666;stroke-width:21.29899979;stroke-linecap:butt;stroke-linejoin:miter;stroke-miterlimit:10;stroke-dasharray:none;stroke-opacity:1"
           d="m 163.759,78.173 h -9.914 v 100.109 h 9.914 z" /><path
           id="path58"
           style="fill:#cccccc;fill-opacity:1;fill-rule:nonzero;stroke:#cccccc;stroke-width:19.84000015;stroke-linecap:butt;stroke-linejoin:miter;stroke-miterlimit:10;stroke-dasharray:none;stroke-opacity:1"
           d="m 179.291,139.609 h -42.772 v 8.317 h 42.772 z" /><g
           transform="translate(133.6097,319.8731)"
           id="g60"><path
             id="path62"
             style="fill:none;stroke:#c4421b;stroke-width:10;stroke-linecap:butt;stroke-linejoin:miter;stroke-miterlimit:10;stroke-dasharray:none;stroke-opacity:1"
             d="M 0,0 C 14.592,65.305 24.605,77.569 31.196,75.741 36.438,74.287 38.83,64.109 53.033,22.35 74.746,-41.488 78.74,-45.881 81.984,-46.788 c 5.584,-1.561 16.923,4.969 34.096,81.424" /></g><g
           transform="translate(240.0272,316.3154)"
           id="g64"><path
             id="path66"
             style="fill:none;stroke:#c4421b;stroke-width:10;stroke-linecap:butt;stroke-linejoin:miter;stroke-miterlimit:10;stroke-dasharray:none;stroke-opacity:1"
             d="M 0,0 C 14.592,65.305 24.605,77.569 31.196,75.741 36.438,74.287 38.83,64.109 53.033,22.35 74.746,-41.488 78.74,-45.881 81.984,-46.788 c 5.584,-1.561 16.923,4.969 34.096,81.424" /></g></g></g></g></svg>